<svg width="1472" height="1638" viewBox="0 0 1472 1638" fill="none" xmlns="http://www.w3.org/2000/svg">
<rect width="1471" height="1637" fill="white"/>
<path d="M1108.11 1634.02C1108.23 1635.01 1108.26 1636.01 1108.2 1637H1055.25C1054.77 1636.03 1054.35 1635.04 1054 1634.02C1047.53 1615.5 1058.17 1584.69 1044.67 1539C1034.65 1505.1 1015.94 1478.58 1007.22 1466.23C996.503 1451.04 984.358 1437.01 970.286 1414.61C967.237 1409.77 964.098 1404.52 960.852 1398.78C959.764 1396.86 947.227 1374.62 948.368 1373.93C948.903 1373.61 952.221 1378.1 953.344 1379.61C963.26 1392.96 969.02 1398.8 977.278 1408.4C982.289 1414.22 988.21 1421.41 996.52 1432.51C1017.83 1460.92 1028.48 1475.12 1032.19 1485.76C1036.64 1498.55 1042 1511 1048.24 1523.03C1053.27 1532.76 1055.78 1537.62 1057.16 1537.23C1061.04 1536.11 1055.8 1495.84 1039.32 1455.58C1036.5 1448.73 1034.4 1444.35 1030.41 1436.06C1023.91 1422.53 987.764 1347.36 961.191 1302.37C957.856 1296.7 954.664 1291.54 951.721 1287.01C951.151 1286.16 950.598 1285.33 950.063 1284.53C947.179 1280.05 943.928 1275.82 940.343 1271.87C938.899 1270.38 935.225 1266.16 927.859 1257.67C924.934 1254.3 922.794 1251.8 921.35 1249.97C921.136 1249.7 920.94 1249.44 920.779 1249.21C919.031 1246.93 918.532 1245.83 918.942 1245.25C919.531 1244.41 921.796 1244.89 924.275 1245.76C924.542 1245.85 924.827 1245.96 925.095 1246.06C927.788 1247.06 930.516 1248.35 931.426 1248.8C939.772 1252.79 947.923 1259.94 955.466 1268.45C958.266 1271.59 960.959 1274.91 963.563 1278.32C971.376 1288.77 978.467 1299.74 984.786 1311.15C991.563 1323.29 995.629 1332.22 995.629 1332.22C1014.55 1373.81 1035.54 1421.38 1036.65 1420.97C1037.86 1420.53 1014.59 1361.31 1007.81 1329.15C1005.54 1318.38 1005.13 1310.64 1008.11 1309.15C1008.22 1309.09 1008.33 1309.04 1008.45 1309C1008.81 1308.89 1009.2 1308.84 1009.58 1308.88C1011.47 1308.68 1013.38 1308.77 1015.25 1309.15C1018.87 1309.93 1022.99 1319.96 1027 1334.03C1037.43 1370.31 1047.35 1433.39 1047.35 1433.39C1057.26 1496.49 1072.32 1547.56 1075.88 1546.99C1077.86 1546.67 1075.03 1530.82 1077.67 1504.39C1079.52 1485.86 1081.62 1486.43 1088.37 1452.92C1099.07 1399.76 1104.42 1373.13 1104.42 1373.04C1104.28 1371.14 1104.33 1369.23 1104.56 1367.33C1104.92 1364.79 1105.83 1362.13 1107.98 1360.62C1111.26 1358.31 1116.54 1359.31 1118.68 1360.62C1120.4 1361.69 1121.27 1363.64 1121.47 1366.44C1122.64 1384.09 1097.18 1435.24 1088.37 1504.39C1083.98 1538.84 1081.57 1557.64 1088.37 1582.49C1095.09 1607.13 1106.81 1622.82 1108.11 1634.02Z" fill="#746A6A" fill-opacity="0.1"/>
<path d="M153.689 1634.12C153.563 1635.11 153.533 1636.11 153.6 1637.1H206.55C207.031 1636.14 207.448 1635.14 207.798 1634.12C214.272 1615.61 203.625 1584.79 217.125 1539.11C227.148 1505.21 245.856 1478.69 254.577 1466.33C265.295 1451.14 277.44 1437.12 291.511 1414.72C294.561 1409.87 297.7 1404.62 300.945 1398.89C302.033 1396.97 314.571 1374.73 313.429 1374.04C312.894 1373.72 309.577 1378.21 308.454 1379.72C298.538 1393.06 292.777 1398.9 284.52 1408.51C279.509 1414.33 273.588 1421.52 265.277 1432.61C243.965 1461.03 233.319 1475.23 229.609 1485.86C225.163 1498.65 219.799 1511.11 213.558 1523.13C208.529 1532.86 206.015 1537.72 204.641 1537.33C200.754 1536.21 205.997 1495.94 222.475 1455.68C225.293 1448.83 227.398 1444.45 231.393 1436.16C237.884 1422.63 274.034 1347.46 300.607 1302.47C303.942 1296.81 307.134 1291.64 310.076 1287.12C310.647 1286.26 311.2 1285.43 311.735 1284.63C314.619 1280.15 317.87 1275.92 321.455 1271.98C322.899 1270.48 326.573 1266.26 333.938 1257.78C336.863 1254.4 339.003 1251.9 340.448 1250.07C340.662 1249.81 340.858 1249.54 341.019 1249.31C342.766 1247.04 343.266 1245.94 342.855 1245.35C342.267 1244.52 340.002 1245 337.523 1245.87C337.256 1245.95 336.97 1246.06 336.703 1246.17C334.01 1247.16 331.281 1248.46 330.372 1248.9C322.025 1252.89 313.875 1260.05 306.331 1268.55C303.531 1271.69 300.838 1275.01 298.235 1278.42C290.421 1288.87 283.331 1299.84 277.012 1311.26C270.235 1323.4 266.169 1332.32 266.169 1332.32C247.247 1373.91 226.256 1421.48 225.151 1421.07C223.938 1420.63 247.211 1361.42 253.988 1329.25C256.253 1318.48 256.663 1310.74 253.685 1309.25C253.577 1309.19 253.464 1309.14 253.346 1309.11C252.984 1308.99 252.602 1308.95 252.223 1308.98C250.33 1308.79 248.418 1308.88 246.552 1309.25C242.931 1310.03 238.811 1320.06 234.799 1334.13C224.366 1370.41 214.45 1433.5 214.45 1433.5C204.534 1496.6 189.482 1547.66 185.916 1547.09C183.936 1546.78 186.772 1530.92 184.132 1504.5C182.277 1485.96 180.173 1486.53 173.432 1453.02C162.731 1399.86 157.381 1373.24 157.381 1373.15C157.519 1371.24 157.471 1369.33 157.238 1367.43C156.882 1364.89 155.972 1362.23 153.814 1360.72C150.533 1358.42 145.254 1359.41 143.114 1360.72C141.402 1361.79 140.528 1363.74 140.332 1366.55C139.155 1384.19 164.622 1435.34 173.432 1504.5C177.819 1538.95 180.227 1557.74 173.432 1582.59C166.708 1607.23 154.991 1622.92 153.689 1634.12Z" fill="#746A6A" fill-opacity="0.1"/>
<path d="M36.2225 1189.44C56.7467 1186.79 82.2385 1196.54 83.757 1207.19C85.0069 1215.96 69.8164 1223.96 71.2479 1224.94C72.5859 1225.85 81.9984 1216.23 93.7642 1216.06C111.543 1215.81 132.881 1237.18 126.288 1249.79C120.995 1259.91 98.3187 1263.22 98.7678 1263.99C99.1914 1264.71 116.469 1256.85 133.793 1258.66C158.598 1261.26 182.35 1283.56 176.324 1297.71C169.59 1313.53 125.998 1318.43 126.288 1319.01C126.594 1319.63 170.162 1303.8 186.331 1313.69C197.176 1320.32 195.621 1335.77 188.833 1345.64C174.665 1366.23 130.466 1373.53 108.775 1363.39C91.9094 1355.5 99.0107 1325.47 81.9865 1300.57C61.0801 1270 28.9927 1277.84 28.7171 1255.11C28.692 1253.05 28.6112 1246.39 33.7207 1244.46C41.8806 1241.38 57.629 1252.48 58.7388 1251.56C59.9393 1250.58 38.8585 1239.77 26.2152 1221.39C22.2385 1215.61 13.191 1202.45 21.2116 1194.76C25.2951 1190.85 32.116 1189.97 36.2225 1189.44Z" fill="#746A6A" fill-opacity="0.1"/>
<path d="M1287 1467.06L1308.01 1636.69L1469.11 1634.37L1471.1 1467.06H1287Z" fill="#746A6A" fill-opacity="0.1"/>
<path d="M1420.8 1438.85C1415.98 1439.15 1413.32 1433.19 1416.96 1429.71L1417.33 1428.28C1417.28 1428.16 1417.23 1428.05 1417.18 1427.93C1412.29 1416.33 1403.54 1427.28 1390.92 1428.06C1372.37 1429.21 1372.65 1443.18 1379.83 1459.51C1381.78 1463.94 1365.22 1428.17 1365.22 1404.15C1365.22 1398.12 1365.55 1392.09 1366.23 1386.07C1366.79 1381.15 1367.56 1376.25 1368.55 1371.41C1373.94 1345.2 1385.59 1320.24 1402.41 1299.39C1410.49 1295 1417.23 1288.12 1421.3 1279.88C1422.77 1276.91 1435.33 1274.4 1435.88 1271.14C1434.96 1271.26 1420.99 1256.64 1421.68 1255.78C1420.4 1253.84 1418.1 1252.88 1416.7 1250.99C1409.74 1241.6 1400.15 1243.24 1395.14 1256.01C1384.44 1261.38 1384.34 1270.29 1390.9 1278.86C1395.08 1284.32 1395.65 1291.7 1399.32 1297.53C1398.94 1298.01 1398.55 1298.48 1398.17 1298.96C1398.03 1299.14 1397.88 1299.33 1397.74 1299.52C1391.82 1307.13 1380.01 1305.18 1376.72 1296.13C1376.48 1295.47 1374.44 1331.23 1375.97 1294.22C1377.51 1257.2 1364.13 1276.05 1357.36 1267.51C1349.27 1257.31 1332.82 1261.95 1331.39 1274.86C1331.38 1274.98 1331.36 1275.11 1331.35 1275.23C1332.35 1275.79 1333.33 1276.39 1334.29 1277.02C1339.75 1280.62 1337.86 1289.04 1331.39 1290.04L1331.24 1290.06C1331.61 1293.65 1332.23 1297.2 1333.13 1300.7C1324.49 1333.96 1343.14 1346.08 1369.77 1346.63L1371.16 1348.59C1368.64 1355.81 1366.61 1363.21 1365.08 1370.7C1363.65 1377.65 1362.66 1384.67 1362.1 1391.73L1362.08 1392.03C1361.61 1398.03 1353.98 1400.58 1350.15 1395.93C1349.17 1394.74 1348.18 1393.71 1347.17 1392.88C1335.62 1383.44 1319.31 1379.97 1306.85 1372.38C1300.85 1368.73 1293.17 1373.45 1294.22 1380.36L1294.27 1380.7C1296.12 1381.45 1297.93 1382.32 1299.68 1383.29C1300.68 1383.86 1301.67 1384.45 1302.63 1385.08C1308.09 1388.68 1306.2 1397.11 1299.72 1398.1L1299.58 1398.12C1299.47 1398.14 1299.38 1398.15 1299.27 1398.17L1299.37 1398.39C1303.54 1408.14 1313.49 1414.46 1324.12 1413.88C1336.63 1413.2 1352.18 1423.61 1365.88 1442.02L1365.9 1442.02C1368.61 1453.79 1372.58 1465.28 1377.68 1476.24H1419.75C1419.9 1475.78 1420.04 1475.3 1420.17 1474.83C1416.28 1475.07 1412.36 1474.84 1408.53 1474.14C1411.65 1470.33 1414.77 1466.49 1417.9 1462.67C1417.97 1462.6 1418.03 1462.52 1418.09 1462.45C1419.67 1460.5 1421.27 1458.56 1422.86 1456.61L1422.86 1456.61C1422.96 1450.62 1422.24 1444.65 1420.81 1438.85L1420.8 1438.85Z" fill="#746A6A" fill-opacity="0.1"/>
<path d="M1431.11 126.526C1380.23 83.239 1341.82 165.281 1315.53 198.116C1358.89 190.697 1429.33 184.029 1430.43 127.431" fill="#746A6A" fill-opacity="0.1"/>
<path d="M1457.14 61.165C1445 107.95 1420.38 163.007 1365.98 169.237C1363.35 169.594 1362.95 165.524 1365.57 165.168C1418.13 159.051 1441.17 105.52 1453.08 60.5192C1453.18 59.9987 1453.48 59.5382 1453.92 59.2347C1454.36 58.9313 1454.9 58.8087 1455.42 58.8926C1455.95 58.9766 1456.42 59.2609 1456.74 59.6851C1457.06 60.1093 1457.2 60.6404 1457.14 61.1669L1457.14 61.165Z" fill="#3F3D56" fill-opacity="0.1"/>
<path d="M1424.17 83.2017C1413.77 35.2518 1354.51 66.2611 1324.41 73.8234C1353.12 88.7292 1397.36 116.089 1423.36 83.4288" fill="#746A6A" fill-opacity="0.1"/>
<path d="M1469.61 53.5673C1441.25 75.5556 1402.12 97.2214 1367.14 76.377C1364.84 75.0858 1367.12 71.6826 1369.42 72.9716C1402.78 92.4641 1439.92 71.4489 1466.88 50.5005C1469 48.9666 1471.75 52.015 1469.61 53.5673Z" fill="#3F3D56" fill-opacity="0.1"/>
<path d="M123.74 51.1503C72.743 94.59 148.25 145.155 176.757 176.149C176.185 132.264 180.605 61.8119 124.533 51.9552" fill="#746A6A" fill-opacity="0.1"/>
<path d="M62.8691 15.3675C107.458 34.5778 158.31 67.3794 155.97 121.956C155.913 124.599 151.805 124.367 151.862 121.733C154.027 68.9797 104.442 37.982 61.5902 19.2709C61.0891 19.0888 60.6788 18.7199 60.4458 18.2419C60.2129 17.7639 60.1754 17.2143 60.3414 16.7086C60.5074 16.203 60.864 15.7809 61.3358 15.5312C61.8076 15.2816 62.3577 15.2238 62.8706 15.3702L62.8691 15.3675Z" fill="#3F3D56" fill-opacity="0.1"/>
<path d="M79.5965 51.2788C30.3152 54.0963 51.8378 117.302 54.6316 148.145C73.9475 122.156 108.074 82.7929 79.6961 52.1063" fill="#746A6A" fill-opacity="0.1"/>
<path d="M57.2736 1.90469C74.6774 33.2601 90.0716 75.1809 63.8713 106.426C62.2274 108.493 59.2032 105.718 60.8443 103.654C85.4481 73.7892 70.3886 33.9287 53.7989 4.1126C52.607 1.78589 56.0671 -0.448471 57.2736 1.90469Z" fill="#3F3D56" fill-opacity="0.1"/>
<path d="M72.0046 732.995C94.9528 795.707 168.97 743.12 208.104 727.438C166.65 712.589 101.972 683.78 73.0395 732.539" fill="#746A6A" fill-opacity="0.1"/>
<path d="M17.0165 777.135C50.7146 742.347 99.3857 706.493 149.869 727.8C152.334 728.779 150.675 732.524 148.219 731.547C99.3878 711.042 52.8567 746.349 20.2373 779.694C19.8903 780.096 19.3996 780.349 18.8686 780.398C18.3376 780.448 17.8078 780.29 17.3906 779.958C16.9735 779.627 16.7018 779.146 16.6326 778.62C16.5634 778.093 16.702 777.56 17.0195 777.134L17.0165 777.135Z" fill="#3F3D56" fill-opacity="0.1"/>
<path d="M56.642 774.145C42.0052 821.022 108.97 823.134 138.944 831.343C121.288 804.247 96.2553 758.673 57.4549 774.342" fill="#746A6A" fill-opacity="0.1"/>
<path d="M2.39807 777.626C37.9779 772.41 82.7847 772.768 102.967 808.116C104.334 810.372 100.664 812.215 99.2994 809.963C79.8547 776.586 37.1021 776.638 3.25487 781.636C0.649614 781.93 -0.237161 777.925 2.39807 777.626Z" fill="#3F3D56" fill-opacity="0.1"/>
<path d="M542.601 852.263L579.878 822.335C550.919 819.128 539.021 834.982 534.151 847.53C511.527 838.1 486.898 850.459 486.898 850.459L561.483 877.639C557.72 867.55 551.17 858.748 542.601 852.263Z" fill="#746A6A" fill-opacity="0.1"/>
<path d="M1099.48 748.777L1136.76 718.849C1107.8 715.642 1095.9 731.496 1091.03 744.044C1068.41 734.614 1043.78 746.973 1043.78 746.973L1118.37 774.153C1114.6 764.065 1108.05 755.262 1099.48 748.777Z" fill="#746A6A" fill-opacity="0.1"/>
</svg>
