<svg width="53" height="55" viewBox="0 0 53 55" fill="none" xmlns="http://www.w3.org/2000/svg">
<path d="M26.5 0.5C11.8881 0.5 0 12.6124 0 27.5C0 42.3876 11.8881 54.5 26.5 54.5C41.1119 54.5 53 42.3876 53 27.5C53 12.6124 41.1119 0.5 26.5 0.5ZM26.7548 12.9615C28.5691 12.9615 30.3426 13.5097 31.8511 14.5366C33.3596 15.5636 34.5353 17.0233 35.2296 18.7311C35.9239 20.4389 36.1056 22.3181 35.7516 24.131C35.3977 25.944 34.524 27.6093 33.2411 28.9164C31.9583 30.2235 30.3238 31.1136 28.5444 31.4743C26.765 31.8349 24.9206 31.6498 23.2444 30.9424C21.5683 30.235 20.1356 29.0371 19.1277 27.5001C18.1197 25.9632 17.5817 24.1562 17.5817 22.3077C17.5817 19.8289 18.5482 17.4517 20.2685 15.699C21.9887 13.9462 24.322 12.9615 26.7548 12.9615ZM26.5 50.3462C23.4072 50.3475 20.3478 49.6952 17.515 48.4306C14.6822 47.166 12.1376 45.3165 10.042 42.999C11.1682 37.0564 21.2841 35.8077 26.5 35.8077C31.7159 35.8077 41.8318 37.0564 42.958 42.9977C40.8627 45.3157 38.3182 47.1655 35.4853 48.4303C32.6525 49.6952 29.5929 50.3475 26.5 50.3462Z" fill="#4FB3BF"/>
</svg>
